<svg xmlns="http://www.w3.org/2000/svg" x="0px" y="0px"
width="50" height="50"
viewBox="0 0 172 172"
style=" fill:#000000;"><g fill="none" fill-rule="nonzero" stroke="none" stroke-width="1" stroke-linecap="butt" stroke-linejoin="miter" stroke-miterlimit="10" stroke-dasharray="" stroke-dashoffset="0" font-family="none" font-weight="none" font-size="none" text-anchor="none" style="mix-blend-mode: normal"><path d="M0,172v-172h172v172z" fill="none"></path><path d="M86,172c-47.49649,0 -86,-38.50351 -86,-86v0c0,-47.49649 38.50351,-86 86,-86v0c47.49649,0 86,38.50351 86,86v0c0,47.49649 -38.50351,86 -86,86z" fill="#24292e"></path><g fill="#fafbfc"><path d="M146.68808,61.17561l-7.7763,-7.7763c-0.90103,-0.90103 -2.34073,-0.97938 -3.33969,-0.18608c-2.24279,1.80206 -4.75001,2.71289 -7.4531,2.71289c-6.5031,0 -11.78197,-5.28867 -11.78197,-11.78197c0,-2.7031 0.91083,-5.21032 2.7031,-7.46289c0.80309,-0.99897 0.72474,-2.43866 -0.17629,-3.33969l-7.7763,-7.76651c-2.64433,-2.65413 -7.42372,-2.64433 -10.05826,-0.00979l-13.44692,13.35878l3.44743,3.44743c0.97938,0.97938 0.97938,2.56598 0,3.54537c-0.48969,0.48969 -1.13608,0.73454 -1.77268,0.73454c-0.64639,0 -1.28299,-0.24485 -1.77268,-0.73454l-3.45722,-3.45722l-58.72378,58.33203c-1.32217,1.32217 -2.04691,3.10464 -2.04691,5.02423c0,1.92938 0.72474,3.71186 2.04691,5.03403l7.7763,7.7763c0.90103,0.90103 2.33093,0.98918 3.3397,0.18608c2.3799,-1.90979 5.12217,-2.96753 7.70774,-2.96753c6.49331,0 11.78197,5.28867 11.78197,11.78197c0,2.85 -1.01856,5.5531 -2.86959,7.60001c-0.89124,0.99897 -0.85206,2.50722 0.09794,3.45722l7.76651,7.7665c1.32216,1.32217 3.11444,2.0567 5.03403,2.0567c1.91959,0 3.71186,-0.73454 5.03403,-2.0567l58.52791,-58.52791l-3.40825,-3.39846c-0.97938,-0.97938 -0.97938,-2.56598 0,-3.54536c0.98918,-0.97938 2.56598,-0.97938 3.54536,0l3.40825,3.39846l13.28043,-13.28043c1.38093,-1.1067 2.24279,-2.75206 2.37011,-4.55413c0.13711,-1.99794 -0.59743,-3.95671 -2.00774,-5.36702zM94.50657,49.39363c0.97938,-0.97938 2.55619,-0.97938 3.54537,0l3.51598,3.51598c0.97938,0.97938 0.97938,2.56598 0,3.54537c-0.48969,0.48969 -1.12629,0.73454 -1.77268,0.73454c-0.64639,0 -1.28299,-0.24485 -1.77268,-0.73454l-3.51598,-3.51598c-0.97938,-0.97938 -0.97938,-2.56598 0,-3.54537zM88.24832,97.29524l-3.25155,14.78868l-7.52166,-13.29022l-15.04332,1.25361l10.27372,-11.28249l-6.01341,-14.03455l13.78971,6.26805l11.53713,-10.02888l-2.00773,15.5428l13.03558,7.7763zM112.12567,67.01273c-0.48969,0.48969 -1.12629,0.73454 -1.77268,0.73454c-0.6366,0 -1.28299,-0.24485 -1.77268,-0.73454l-3.51598,-3.51598c-0.97938,-0.97938 -0.97938,-2.57577 0,-3.54536c0.97938,-0.97938 2.56598,-0.97938 3.54536,0l3.51598,3.51598c0.97938,0.97938 0.97938,2.56598 0,3.54536zM122.68342,77.57048c-0.48969,0.48969 -1.12629,0.73454 -1.77268,0.73454c-0.6366,0 -1.28299,-0.24485 -1.77268,-0.73454l-3.51598,-3.51598c-0.97938,-0.97938 -0.97938,-2.56598 0,-3.54537c0.97938,-0.97938 2.56598,-0.97938 3.54537,0l3.51598,3.51598c0.97938,0.97938 0.97938,2.56598 0,3.54537z"></path></g></g></svg>