<svg xmlns="http://www.w3.org/2000/svg" x="0px" y="0px"
width="50" height="50"
viewBox="0 0 172 172"
style=" fill:#000000;"><g fill="none" fill-rule="nonzero" stroke="none" stroke-width="1" stroke-linecap="butt" stroke-linejoin="miter" stroke-miterlimit="10" stroke-dasharray="" stroke-dashoffset="0" font-family="none" font-weight="none" font-size="none" text-anchor="none" style="mix-blend-mode: normal"><path d="M0,172v-172h172v172z" fill="none"></path><path d="M86,172c-47.49649,0 -86,-38.50351 -86,-86v0c0,-47.49649 38.50351,-86 86,-86v0c47.49649,0 86,38.50351 86,86v0c0,47.49649 -38.50351,86 -86,86z" fill="#fafbfc"></path><g fill="#24292e"><path d="M148.36098,60.49019l-7.9906,-7.9906c-0.92586,-0.92586 -2.40523,-1.00637 -3.43173,-0.19121c-2.3046,1.85173 -4.88091,2.78765 -7.6585,2.78765c-6.68232,0 -12.10666,-5.43441 -12.10666,-12.10667c0,-2.77759 0.93593,-5.3539 2.77759,-7.66856c0.82522,-1.0265 0.74471,-2.50587 -0.18115,-3.43173l-7.9906,-7.98054c-2.71721,-2.72727 -7.62831,-2.71721 -10.33545,-0.01006l-13.8175,13.72693l3.54243,3.54243c1.00637,1.00637 1.00637,2.6367 0,3.64307c-0.50319,0.50319 -1.16739,0.75478 -1.82154,0.75478c-0.6642,0 -1.31835,-0.25159 -1.82153,-0.75478l-3.5525,-3.5525l-60.34212,59.93957c-1.3586,1.3586 -2.10332,3.1902 -2.10332,5.16269c0,1.98255 0.74472,3.81415 2.10332,5.17276l7.9906,7.9906c0.92586,0.92586 2.39517,1.01644 3.43173,0.19121c2.44548,-1.96243 5.26333,-3.04931 7.92015,-3.04931c6.67225,0 12.10667,5.43441 12.10667,12.10666c0,2.92855 -1.04663,5.70613 -2.94867,7.80945c-0.9158,1.0265 -0.87555,2.57631 0.10064,3.5525l7.98054,7.98054c1.3586,1.3586 3.20026,2.11338 5.17276,2.11338c1.97249,0 3.81415,-0.75478 5.17276,-2.11338l60.14084,-60.14084l-3.50218,-3.49211c-1.00637,-1.00637 -1.00637,-2.6367 0,-3.64307c1.01644,-1.00637 2.6367,-1.00637 3.64307,0l3.50218,3.49211l13.64642,-13.64642c1.41899,-1.1372 2.30459,-2.82791 2.43542,-4.67963c0.14089,-2.053 -0.61389,-4.06575 -2.06307,-5.51492zM94.74143,48.38353c1.00637,-1.00637 2.62664,-1.00637 3.64307,0l3.61288,3.61288c1.00637,1.00637 1.00637,2.6367 0,3.64307c-0.50319,0.50319 -1.15733,0.75478 -1.82154,0.75478c-0.6642,0 -1.31835,-0.25159 -1.82153,-0.75478l-3.61288,-3.61288c-1.00637,-1.00637 -1.00637,-2.6367 0,-3.64307zM88.31071,97.60522l-3.34116,15.19623l-7.72894,-13.65648l-15.45789,1.28816l10.55685,-11.59342l-6.17913,-14.42132l14.16973,6.44079l11.85507,-10.30526l-2.06306,15.97114l13.39482,7.9906zM112.84608,66.48818c-0.50319,0.50319 -1.15733,0.75478 -1.82153,0.75478c-0.65414,0 -1.31835,-0.25159 -1.82153,-0.75478l-3.61288,-3.61288c-1.00637,-1.00637 -1.00637,-2.64676 0,-3.64307c1.00637,-1.00637 2.6367,-1.00637 3.64307,0l3.61288,3.61288c1.00637,1.00637 1.00637,2.6367 0,3.64307zM123.69478,77.33688c-0.50319,0.50319 -1.15733,0.75478 -1.82154,0.75478c-0.65414,0 -1.31835,-0.25159 -1.82153,-0.75478l-3.61288,-3.61288c-1.00637,-1.00637 -1.00637,-2.6367 0,-3.64307c1.00637,-1.00637 2.6367,-1.00637 3.64307,0l3.61288,3.61288c1.00637,1.00637 1.00637,2.6367 0,3.64307z"></path></g></g></svg>